<svg width="40" height="33" viewBox="0 0 178 147" fill="none" xmlns="http://www.w3.org/2000/svg">
<path d="M44.2793 146.8H12.3794C5.88314 146.8 0.436369 142.013 0.164901 135.522C-0.854196 111.156 1.61292 53.4193 43.9979 23.8589C70.307 5.51034 102.344 0.395874 128.483 0.022589C141.867 -0.168554 143.061 15.5135 130.588 20.3713C57.1246 48.9821 37.665 81.6011 56.6461 109.706C64.6275 121.524 58.5402 146.8 44.2793 146.8Z" fill="url(#paint0_linear_61_66)"/>
<path d="M127 147H100.943C94.0919 147 88.1648 142.351 87.2954 135.555C84.8592 116.512 83.5057 76.5811 105.861 37.9283C129.7 -3.2884 138.278 -1.59331 140.944 1.29992C141.891 2.32785 142 3.81977 142 5.21759V131.981C142 140.266 135.284 147 127 147Z" fill="url(#paint1_linear_61_66)"/>
<defs>
<linearGradient id="paint0_linear_61_66" x1="88.9453" y1="0" x2="88.9453" y2="146.8" gradientUnits="userSpaceOnUse">
<stop stop-color="#2D8BFF"/>
<stop offset="1" stop-color="#006DDA"/>
</linearGradient>
<linearGradient id="paint1_linear_61_66" x1="114" y1="0" x2="114" y2="147" gradientUnits="userSpaceOnUse">
<stop stop-color="#005EBC"/>
<stop offset="1" stop-color="#2D8BFF"/>
</linearGradient>
</defs>
</svg>
